<?xml version="1.0" encoding="UTF-8"?>
<svg xmlns="http://www.w3.org/2000/svg" xmlns:xlink="http://www.w3.org/1999/xlink" width="16px" height="16px" viewBox="0 0 16 16" version="1.1">
<g id="surface1">
<path style=" stroke:none;fill-rule:evenodd;fill:rgb(0%,0%,0%);fill-opacity:1;" d="M 1.511719 2.417969 C 1.496094 2.4375 1.480469 2.792969 1.480469 3.207031 L 1.480469 3.964844 L 1.910156 3.964844 L 1.910156 3.4375 C 1.910156 2.804688 1.84375 2.804688 2.625 3.441406 C 3.246094 3.945312 3.28125 3.964844 3.5 3.964844 L 3.726562 3.964844 L 3.703125 2.410156 L 3.5 2.398438 L 3.296875 2.382812 L 3.273438 3.484375 L 2.585938 2.9375 C 1.902344 2.390625 1.660156 2.273438 1.511719 2.417969 M 4.753906 3.132812 C 4.488281 3.542969 4.265625 3.898438 4.257812 3.921875 C 4.199219 4.074219 4.71875 3.957031 4.804688 3.796875 L 4.894531 3.628906 L 5.960938 3.628906 L 6.066406 3.796875 C 6.183594 3.992188 6.703125 4.074219 6.59375 3.878906 C 6.566406 3.835938 6.34375 3.484375 6.101562 3.105469 L 5.652344 2.410156 L 5.230469 2.386719 L 4.753906 3.132812 M 7.164062 3.171875 L 7.164062 3.964844 L 7.59375 3.964844 L 7.59375 3.488281 L 8.203125 3.488281 C 9.082031 3.488281 9.414062 3.269531 9.253906 2.789062 C 9.144531 2.460938 8.996094 2.414062 8.011719 2.394531 L 7.164062 2.378906 L 7.164062 3.171875 M 9.886719 3.175781 L 9.886719 3.964844 L 10.316406 3.964844 L 10.316406 3.488281 L 10.914062 3.488281 C 11.757812 3.488281 11.988281 3.367188 11.988281 2.933594 C 11.988281 2.496094 11.71875 2.390625 10.640625 2.386719 L 9.886719 2.386719 L 9.886719 3.175781 M 12.808594 3.148438 C 12.242188 4.039062 12.265625 3.964844 12.535156 3.964844 C 12.730469 3.964844 12.761719 3.945312 12.859375 3.796875 L 12.96875 3.632812 L 13.5 3.628906 L 14.035156 3.628906 L 14.136719 3.796875 C 14.257812 3.992188 14.777344 4.074219 14.664062 3.878906 C 14.640625 3.835938 14.414062 3.484375 14.167969 3.105469 L 13.71875 2.410156 L 13.507812 2.398438 L 13.296875 2.382812 L 12.808594 3.148438 M 8.835938 2.863281 C 8.945312 3.074219 8.757812 3.152344 8.144531 3.152344 L 7.59375 3.152344 L 7.59375 2.769531 L 8.1875 2.769531 C 8.734375 2.769531 8.789062 2.777344 8.835938 2.863281 M 11.558594 2.863281 C 11.667969 3.074219 11.480469 3.152344 10.867188 3.152344 L 10.316406 3.152344 L 10.316406 2.769531 L 10.910156 2.769531 C 11.457031 2.769531 11.511719 2.777344 11.558594 2.863281 M 5.65625 3.160156 L 5.738281 3.296875 L 5.449219 3.296875 C 5.113281 3.296875 5.117188 3.300781 5.289062 3.027344 L 5.421875 2.820312 L 5.5 2.921875 C 5.542969 2.980469 5.613281 3.085938 5.65625 3.160156 M 13.730469 3.160156 L 13.808594 3.296875 L 13.179688 3.296875 L 13.335938 3.058594 C 13.507812 2.796875 13.515625 2.796875 13.730469 3.160156 "/>
</g>
</svg>
